#Comment line ignore any data following # character 
#Hierarchical Translation and Rotation (.htr) file 
[Header]	
#Header keywords are followed by a single value 
FileType HTR		#Single word string
DataType HTRS		#Translation followed by rotation and scale data
FileVersion 1		#integer
NumSegments 84		#integer
NumFrames 2		#integer
DataFrameRate 30		#integer, data frame rate in this file
EulerRotationOrder ZYX
CalibrationUnits mm
RotationUnits Degrees
GlobalAxisofGravity Y
BoneLengthAxis Y
ScaleFactor 1.00
[SegmentNames&Hierarchy]
#CHILD	PARENT
MASTER GLOBAL
root MASTER
chest root
L_mid_tent01 root
R_mid_tent01 root
spine01 root
Bip01_Neck chest
L_humerus chest
R_humerus chest
weapon_bone chest
Bip01_Head Bip01_Neck
eye_left_bone Bip01_Head
eye_right_bone Bip01_Head
L_forearm L_humerus
L_front_hand L_forearm
L_weapon_bone L_forearm
L_front_hand01_01 L_front_hand
L_front_hand02_01 L_front_hand
L_front_hand03_01 L_front_hand
L_front_hand01_02 L_front_hand01_01
L_front_hand02_02 L_front_hand02_01
L_front_hand03_02 L_front_hand03_01
R_forearm R_humerus
R_front_hand R_forearm
R_weapon_bone R_forearm
R_front_hand01_01 R_front_hand
R_front_hand02_01 R_front_hand
R_front_hand03_01 R_front_hand
R_front_hand01_02 R_front_hand01_01
R_front_hand02_02 R_front_hand02_01
R_front_hand03_02 R_front_hand03_01
null_rope01_connect L_mid_tent01
Rope1_Seg01 null_rope01_connect
Rope1_Seg02 Rope1_Seg01
Rope1_Seg03 Rope1_Seg02
Rope1_Seg04 Rope1_Seg03
Rope1_Seg05 Rope1_Seg04
Rope1_Seg06 Rope1_Seg05
Rope1_Seg07 Rope1_Seg06
Rope1_Seg09 Rope1_Seg07
L_mid_hand01 Rope1_Seg09
L_mid_hand02 Rope1_Seg09
L_mid_hand03 Rope1_Seg09
null_rope02_connect R_mid_tent01
Rope2_Seg01 null_rope02_connect
Rope2_Seg02 Rope2_Seg01
Rope2_Seg03 Rope2_Seg02
Rope2_Seg04 Rope2_Seg03
Rope2_Seg05 Rope2_Seg04
Rope2_Seg06 Rope2_Seg05
Rope2_Seg07 Rope2_Seg06
Rope2_Seg09 Rope2_Seg07
R_mid_hand01 Rope2_Seg09
R_mid_hand02 Rope2_Seg09
R_mid_hand03 Rope2_Seg09
spine02 spine01
spine03 spine02
pelvis spine03
null_rope03_connect pelvis
null_rope04_connect pelvis
Rope3_Seg01 null_rope03_connect
Rope3_Seg02 Rope3_Seg01
Rope3_Seg03 Rope3_Seg02
Rope3_Seg04 Rope3_Seg03
Rope3_Seg05 Rope3_Seg04
Rope3_Seg06 Rope3_Seg05
Rope3_Seg07 Rope3_Seg06
Rope3_Seg08 Rope3_Seg07
Rope3_Seg09 Rope3_Seg08
R_rear_hand01 Rope3_Seg09
R_rear_hand02 Rope3_Seg09
R_rear_hand03 Rope3_Seg09
Rope4_Seg01 null_rope04_connect
Rope4_Seg02 Rope4_Seg01
Rope4_Seg03 Rope4_Seg02
Rope4_Seg04 Rope4_Seg03
Rope4_Seg05 Rope4_Seg04
Rope4_Seg06 Rope4_Seg05
Rope4_Seg07 Rope4_Seg06
Rope4_Seg08 Rope4_Seg07
Rope4_Seg09 Rope4_Seg08
L_rear_hand01 Rope4_Seg09
L_rear_hand02 Rope4_Seg09
L_rear_hand03 Rope4_Seg09
[BasePosition]
#SegmentName Tx, Ty, Tz, Rx, Ry, Rz, BoneLength
MASTER 0.000000 0.000000 0.000000 -90.000000 0.000000 0.000000 10.000000 
root 0.000000 0.000000 0.000000 0.000000 0.000000 0.000000 10.000000 
chest 0.000000 0.000000 0.000000 0.000000 0.000000 0.000000 10.000000 
L_mid_tent01 0.000000 0.000000 0.000000 0.000000 0.000000 0.000000 10.000000 
R_mid_tent01 0.000000 0.000000 0.000000 0.000000 0.000000 0.000000 10.000000 
spine01 0.000000 0.000000 0.000000 0.000000 0.000000 0.000000 10.000000 
Bip01_Neck 0.000000 0.000000 0.000000 0.000000 0.000000 0.000000 10.000000 
L_humerus 0.000000 0.000000 0.000000 0.000000 0.000000 0.000000 10.000000 
R_humerus 0.000000 0.000000 0.000000 0.000000 0.000000 0.000000 10.000000 
weapon_bone 0.000000 0.000000 0.000000 0.000000 0.000000 0.000000 10.000000 
Bip01_Head 0.000000 0.000000 0.000000 0.000000 0.000000 0.000000 10.000000 
eye_left_bone 0.000000 0.000000 0.000000 0.000000 0.000000 0.000000 10.000000 
eye_right_bone 0.000000 0.000000 0.000000 0.000000 0.000000 0.000000 10.000000 
L_forearm 0.000000 0.000000 0.000000 0.000000 0.000000 0.000000 10.000000 
L_front_hand 0.000000 0.000000 0.000000 0.000000 0.000000 0.000000 10.000000 
L_weapon_bone 0.000000 0.000000 0.000000 0.000000 0.000000 0.000000 10.000000 
L_front_hand01_01 0.000000 0.000000 0.000000 0.000000 0.000000 0.000000 10.000000 
L_front_hand02_01 0.000000 0.000000 0.000000 0.000000 0.000000 0.000000 10.000000 
L_front_hand03_01 0.000000 0.000000 0.000000 0.000000 0.000000 0.000000 10.000000 
L_front_hand01_02 0.000000 0.000000 0.000000 0.000000 0.000000 0.000000 10.000000 
L_front_hand02_02 0.000000 0.000000 0.000000 0.000000 0.000000 0.000000 10.000000 
L_front_hand03_02 0.000000 0.000000 0.000000 0.000000 0.000000 0.000000 10.000000 
R_forearm 0.000000 0.000000 0.000000 0.000000 0.000000 0.000000 10.000000 
R_front_hand 0.000000 0.000000 0.000000 0.000000 0.000000 0.000000 10.000000 
R_weapon_bone 0.000000 0.000000 0.000000 0.000000 0.000000 0.000000 10.000000 
R_front_hand01_01 0.000000 0.000000 0.000000 0.000000 0.000000 0.000000 10.000000 
R_front_hand02_01 0.000000 0.000000 0.000000 0.000000 0.000000 0.000000 10.000000 
R_front_hand03_01 0.000000 0.000000 0.000000 0.000000 0.000000 0.000000 10.000000 
R_front_hand01_02 0.000000 0.000000 0.000000 0.000000 0.000000 0.000000 10.000000 
R_front_hand02_02 0.000000 0.000000 0.000000 0.000000 0.000000 0.000000 10.000000 
R_front_hand03_02 0.000000 0.000000 0.000000 0.000000 0.000000 0.000000 10.000000 
null_rope01_connect 0.000000 0.000000 0.000000 0.000000 0.000000 0.000000 10.000000 
Rope1_Seg01 0.000000 0.000000 0.000000 0.000000 0.000000 0.000000 10.000000 
Rope1_Seg02 0.000000 0.000000 0.000000 0.000000 0.000000 0.000000 10.000000 
Rope1_Seg03 0.000000 0.000000 0.000000 0.000000 0.000000 0.000000 10.000000 
Rope1_Seg04 0.000000 0.000000 0.000000 0.000000 0.000000 0.000000 10.000000 
Rope1_Seg05 0.000000 0.000000 0.000000 0.000000 0.000000 0.000000 10.000000 
Rope1_Seg06 0.000000 0.000000 0.000000 0.000000 0.000000 0.000000 10.000000 
Rope1_Seg07 0.000000 0.000000 0.000000 0.000000 0.000000 0.000000 10.000000 
Rope1_Seg09 0.000000 0.000000 0.000000 0.000000 0.000000 0.000000 10.000000 
L_mid_hand01 0.000000 0.000000 0.000000 0.000000 0.000000 0.000000 10.000000 
L_mid_hand02 0.000000 0.000000 0.000000 0.000000 0.000000 0.000000 10.000000 
L_mid_hand03 0.000000 0.000000 0.000000 0.000000 0.000000 0.000000 10.000000 
null_rope02_connect 0.000000 0.000000 0.000000 0.000000 0.000000 0.000000 10.000000 
Rope2_Seg01 0.000000 0.000000 0.000000 0.000000 0.000000 0.000000 10.000000 
Rope2_Seg02 0.000000 0.000000 0.000000 0.000000 0.000000 0.000000 10.000000 
Rope2_Seg03 0.000000 0.000000 0.000000 0.000000 0.000000 0.000000 10.000000 
Rope2_Seg04 0.000000 0.000000 0.000000 0.000000 0.000000 0.000000 10.000000 
Rope2_Seg05 0.000000 0.000000 0.000000 0.000000 0.000000 0.000000 10.000000 
Rope2_Seg06 0.000000 0.000000 0.000000 0.000000 0.000000 0.000000 10.000000 
Rope2_Seg07 0.000000 0.000000 0.000000 0.000000 0.000000 0.000000 10.000000 
Rope2_Seg09 0.000000 0.000000 0.000000 0.000000 0.000000 0.000000 10.000000 
R_mid_hand01 0.000000 0.000000 0.000000 0.000000 0.000000 0.000000 10.000000 
R_mid_hand02 0.000000 0.000000 0.000000 0.000000 0.000000 0.000000 10.000000 
R_mid_hand03 0.000000 0.000000 0.000000 0.000000 0.000000 0.000000 10.000000 
spine02 0.000000 0.000000 0.000000 0.000000 0.000000 0.000000 10.000000 
spine03 0.000000 0.000000 0.000000 0.000000 0.000000 0.000000 10.000000 
pelvis 0.000000 0.000000 0.000000 0.000000 0.000000 0.000000 10.000000 
null_rope03_connect 0.000000 0.000000 0.000000 0.000000 0.000000 0.000000 10.000000 
null_rope04_connect 0.000000 0.000000 0.000000 0.000000 0.000000 0.000000 10.000000 
Rope3_Seg01 0.000000 0.000000 0.000000 0.000000 0.000000 0.000000 10.000000 
Rope3_Seg02 0.000000 0.000000 0.000000 0.000000 0.000000 0.000000 10.000000 
Rope3_Seg03 0.000000 0.000000 0.000000 0.000000 0.000000 0.000000 10.000000 
Rope3_Seg04 0.000000 0.000000 0.000000 0.000000 0.000000 0.000000 10.000000 
Rope3_Seg05 0.000000 0.000000 0.000000 0.000000 0.000000 0.000000 10.000000 
Rope3_Seg06 0.000000 0.000000 0.000000 0.000000 0.000000 0.000000 10.000000 
Rope3_Seg07 0.000000 0.000000 0.000000 0.000000 0.000000 0.000000 10.000000 
Rope3_Seg08 0.000000 0.000000 0.000000 0.000000 0.000000 0.000000 10.000000 
Rope3_Seg09 0.000000 0.000000 0.000000 0.000000 0.000000 0.000000 10.000000 
R_rear_hand01 0.000000 0.000000 0.000000 0.000000 0.000000 0.000000 10.000000 
R_rear_hand02 0.000000 0.000000 0.000000 0.000000 0.000000 0.000000 10.000000 
R_rear_hand03 0.000000 0.000000 0.000000 0.000000 0.000000 0.000000 10.000000 
Rope4_Seg01 0.000000 0.000000 0.000000 0.000000 0.000000 0.000000 10.000000 
Rope4_Seg02 0.000000 0.000000 0.000000 0.000000 0.000000 0.000000 10.000000 
Rope4_Seg03 0.000000 0.000000 0.000000 0.000000 0.000000 0.000000 10.000000 
Rope4_Seg04 0.000000 0.000000 0.000000 0.000000 0.000000 0.000000 10.000000 
Rope4_Seg05 0.000000 0.000000 0.000000 0.000000 0.000000 0.000000 10.000000 
Rope4_Seg06 0.000000 0.000000 0.000000 0.000000 0.000000 0.000000 10.000000 
Rope4_Seg07 0.000000 0.000000 0.000000 0.000000 0.000000 0.000000 10.000000 
Rope4_Seg08 0.000000 0.000000 0.000000 0.000000 0.000000 0.000000 10.000000 
Rope4_Seg09 0.000000 0.000000 0.000000 0.000000 0.000000 0.000000 10.000000 
L_rear_hand01 0.000000 0.000000 0.000000 0.000000 0.000000 0.000000 10.000000 
L_rear_hand02 0.000000 0.000000 0.000000 0.000000 0.000000 0.000000 10.000000 
L_rear_hand03 0.000000 0.000000 0.000000 0.000000 0.000000 0.000000 10.000000 
#Beginning of Data. Separated by tabs
#Fr	Tx	Ty	Tz	Rx	Ry	Rz	SF
[MASTER]
43 0.000003 -0.000004 -4835.225098 0.001660 0.001660 0.001660 4835.225098
44 0.000003 -0.000002 -4812.161133 0.001660 0.001660 0.001660 4812.160645
[root]
43 -16.502304 9.336707 1448.333008 -91.728889 -11.584499 -89.471611 1448.457153
44 -16.502304 9.350422 1448.326538 -91.728889 -11.584499 -89.471611 1448.450684
[chest]
43 -84.512650 -34.090519 0.000000 -2.190595 0.180078 166.643524 91.129311
44 -84.512650 -34.090519 0.000000 -2.181430 0.116838 167.192444 91.129311
[L_mid_tent01]
43 27.299200 22.178928 -249.918686 -21.846693 9.396166 7.087139 252.381668
44 27.299196 22.178942 -249.918701 -21.665409 10.397938 8.902488 252.381683
[R_mid_tent01]
43 23.228794 24.509907 226.238495 -162.853867 -15.119012 18.772245 228.744751
44 23.228794 24.509907 226.238495 -163.261337 -16.291876 20.259012 228.744751
[spine01]
43 -0.361383 -0.195265 0.000000 0.001955 0.001299 22.793011 0.410763
44 -0.361383 -0.195265 0.000000 0.001952 0.001303 22.540808 0.410763
[Bip01_Neck]
43 165.484543 71.581718 0.000119 176.643677 -1.657967 43.431911 180.302734
44 165.484543 71.581718 0.000119 176.643677 -1.657967 43.431911 180.302734
[L_humerus]
43 -13.983130 -135.272980 -120.471481 -7.037038 63.845837 82.805038 181.680161
44 -13.983130 -135.272980 -120.471481 -6.570211 65.596207 83.345940 181.680161
[R_humerus]
43 -13.983309 -135.273102 125.287651 25.640127 -64.634056 70.086800 184.909012
44 -13.983309 -135.273102 125.287651 26.305948 -66.464218 69.393402 184.909012
[weapon_bone]
43 235.964890 -300.705902 0.000000 0.000000 -89.951546 -128.212341 382.234833
44 235.964890 -300.705902 0.000000 0.000000 -89.951546 -128.212341 382.234833
[Bip01_Head]
43 213.444244 185.715378 11.776942 4.962490 2.797846 -43.898743 283.173706
44 213.444229 185.715363 11.776933 4.962490 2.797846 -43.898743 283.173676
[eye_left_bone]
43 -24.626970 125.451866 -64.772606 0.000000 -90.000000 -99.840431 143.318359
44 -24.626970 125.451866 -64.772606 0.000000 -90.000000 -99.840431 143.318359
[eye_right_bone]
43 -24.626970 125.451866 64.327362 0.000000 -89.965736 80.156380 143.117676
44 -24.626970 125.451866 64.327362 0.000000 -89.965736 80.156380 143.117676
[L_forearm]
43 322.776093 0.000000 -0.000119 0.000420 -0.002309 -110.621300 322.776093
44 322.776093 0.000000 -0.000119 0.000412 -0.002311 -110.211792 322.776093
[L_front_hand]
43 241.149185 -0.042021 -3.300071 -178.667953 -1.835447 -27.422350 241.171753
44 241.149185 -0.042021 -3.300071 -178.667953 -1.835447 -27.422350 241.171753
[L_weapon_bone]
43 156.183838 0.000000 0.000000 0.000014 0.000007 0.000001 156.183838
44 156.183838 0.000000 0.000000 0.000014 0.000007 0.000001 156.183838
[L_front_hand01_01]
43 86.095154 20.947098 -0.655860 -0.366594 -0.477154 75.385574 88.609184
44 86.095154 20.947098 -0.655860 -0.366594 -0.477154 75.385574 88.609184
[L_front_hand02_01]
43 86.935165 -11.437475 24.513514 154.399796 -59.883835 -61.369587 91.046425
44 86.935165 -11.437475 24.513514 154.399796 -59.883835 -61.369587 91.046425
[L_front_hand03_01]
43 86.637497 -14.123976 -20.424902 -153.913849 58.118122 -62.702866 90.126129
44 86.637497 -14.123976 -20.424902 -153.913849 58.118122 -62.702866 90.126129
[L_front_hand01_02]
43 71.020905 -0.000179 0.000030 0.000334 -0.002323 -106.379684 71.020905
44 71.020905 -0.000179 0.000030 0.000334 -0.002323 -106.379684 71.020905
[L_front_hand02_02]
43 71.020927 -0.000119 0.000060 0.000334 -0.002323 -106.379684 71.020927
44 71.020927 -0.000119 0.000060 0.000334 -0.002323 -106.379684 71.020927
[L_front_hand03_02]
43 71.020905 -0.000060 0.000060 0.000334 -0.002323 -106.379684 71.020905
44 71.020905 -0.000060 0.000060 0.000334 -0.002323 -106.379684 71.020905
[R_forearm]
43 322.776428 -0.000060 0.000030 0.201403 0.067290 -109.274231 322.776428
44 322.776428 -0.000060 0.000030 0.201644 0.066564 -108.861320 322.776428
[R_front_hand]
43 238.847015 -0.006795 2.210259 -2.635298 -10.645461 -26.312506 238.857239
44 238.847015 -0.006795 2.210259 -2.635298 -10.645461 -26.312506 238.857239
[R_weapon_bone]
43 155.664093 0.002503 -0.000030 0.003487 0.001180 -90.988930 155.664078
44 155.664093 0.002503 -0.000030 0.003487 0.001180 -90.988930 155.664078
[R_front_hand01_01]
43 87.624611 14.231146 22.918642 -154.633484 -59.950607 61.746033 91.683487
44 87.624611 14.231146 22.918642 -154.633499 -59.950619 61.746044 91.683487
[R_front_hand02_01]
43 89.356956 14.367283 -19.491137 154.602661 58.302849 63.744389 92.579636
44 89.356956 14.367283 -19.491137 154.602661 58.302849 63.744389 92.579636
[R_front_hand03_01]
43 87.286232 -22.307278 -0.143439 0.162155 -0.423168 -75.767921 90.091743
44 87.286232 -22.307278 -0.143439 0.162155 -0.423168 -75.767921 90.091743
[R_front_hand01_02]
43 71.020905 0.000060 0.000119 0.002323 -0.000334 106.381714 71.020905
44 71.020905 0.000060 0.000119 0.002323 -0.000334 106.381714 71.020905
[R_front_hand02_02]
43 71.020844 -0.000030 -0.000119 0.002323 -0.000334 106.381714 71.020836
44 71.020844 -0.000030 -0.000119 0.002323 -0.000334 106.381714 71.020836
[R_front_hand03_02]
43 71.020905 0.000000 0.000030 0.002323 -0.000334 106.381714 71.020905
44 71.020905 0.000000 0.000030 0.002323 -0.000334 106.381714 71.020905
[null_rope01_connect]
43 328.732483 0.000000 -0.000238 -155.310303 -64.863594 -111.812988 328.732483
44 328.732483 0.000000 -0.000238 -154.848557 -64.637993 -114.258247 328.732483
[Rope1_Seg01]
43 0.000073 -0.000039 0.000291 45.140709 7.706873 -121.896339 0.000303
44 0.000075 -0.000039 0.000298 47.119877 5.560200 -120.695930 0.000310
[Rope1_Seg02]
43 139.999863 -0.000179 0.000000 7.479426 2.044802 4.329913 139.999863
44 139.999863 -0.000179 0.000000 7.596191 2.415037 3.613078 139.999863
[Rope1_Seg03]
43 139.999924 0.000060 -0.000060 8.280919 2.424305 4.235095 139.999924
44 139.999924 0.000060 -0.000060 7.710988 2.664604 3.315275 139.999924
[Rope1_Seg04]
43 139.999924 -0.000060 -0.000119 10.016994 3.410868 4.359420 139.999924
44 139.999924 -0.000060 -0.000119 8.747305 3.504493 3.257515 139.999924
[Rope1_Seg05]
43 139.999832 0.000119 -0.000060 5.877183 3.667308 1.057066 139.999832
44 139.999832 0.000119 -0.000060 5.767247 3.614204 1.045851 139.999832
[Rope1_Seg06]
43 139.999954 0.000119 -0.000060 2.128899 1.752538 0.014440 139.999954
44 139.999954 0.000119 -0.000060 2.314378 1.774140 0.171072 139.999954
[Rope1_Seg07]
43 139.999985 0.000060 0.000000 1.494652 1.104762 0.181773 139.999985
44 139.999985 0.000060 0.000000 1.487195 1.097385 0.179132 139.999985
[Rope1_Seg09]
43 121.602913 0.000119 -0.000089 -89.793175 -1.359789 0.847147 121.602913
44 121.602913 0.000119 -0.000089 -89.793175 -1.359789 0.847147 121.602913
[L_mid_hand01]
43 103.859421 1.038730 8.195221 130.544373 -67.584534 -38.866943 104.187431
44 103.859421 1.038730 8.195221 130.544373 -67.584534 -38.866943 104.187431
[L_mid_hand02]
43 105.572853 -4.139662 -10.864139 -168.923172 43.409309 -73.498886 106.211075
44 105.572853 -4.139662 -10.864139 -168.923172 43.409309 -73.498886 106.211075
[L_mid_hand03]
43 104.641464 17.579376 -3.913581 -6.012627 17.808174 74.893669 106.179977
44 104.641464 17.579376 -3.913581 -6.012627 17.808174 74.893669 106.179977
[null_rope02_connect]
43 328.732849 0.000179 -0.000119 -144.245438 68.588638 -44.554749 328.732849
44 328.732849 0.000179 -0.000119 -142.935211 68.074821 -41.626675 328.732849
[Rope2_Seg01]
43 0.000106 0.000114 0.000000 43.973621 8.972519 -32.435734 0.000155
44 0.000110 0.000114 0.000000 42.211529 7.217077 -33.933956 0.000159
[Rope2_Seg02]
43 139.999741 -0.000060 -0.000119 -19.742670 -8.456182 -7.235171 139.999756
44 139.999741 -0.000060 -0.000119 -21.107868 -7.663639 -7.668099 139.999756
[Rope2_Seg03]
43 140.000107 0.000030 0.000000 -12.678430 -3.063941 -5.658938 140.000107
44 140.000107 0.000030 0.000000 -11.226124 -1.846030 -5.281155 140.000107
[Rope2_Seg04]
43 139.999802 0.000000 -0.000060 -10.252001 -1.493063 -5.299191 139.999802
44 139.999802 0.000000 -0.000060 -9.810966 -0.913095 -5.327791 139.999802
[Rope2_Seg05]
43 139.999985 -0.000060 0.000119 -27.960291 -2.780828 -21.675156 139.999985
44 139.999985 -0.000060 0.000119 -27.862186 -2.601696 -22.028341 139.999985
[Rope2_Seg06]
43 139.999893 -0.000030 -0.000119 -12.407841 6.691290 -17.928303 139.999893
44 139.999893 -0.000030 -0.000119 -12.014369 6.627118 -17.589148 139.999893
[Rope2_Seg07]
43 139.999893 0.000060 -0.000060 -2.945263 4.245206 -6.730312 139.999893
44 139.999893 0.000060 -0.000060 -2.868867 4.197560 -6.621943 139.999893
[Rope2_Seg09]
43 121.338966 0.000089 -0.000060 33.793236 -1.359788 -0.847141 121.338966
44 121.338966 0.000089 -0.000060 33.793236 -1.359788 -0.847141 121.338966
[R_mid_hand01]
43 104.680779 11.144459 -10.335981 -16.212063 45.237247 70.462852 105.778534
44 104.680779 11.144459 -10.335981 -16.212063 45.237247 70.462852 105.778534
[R_mid_hand02]
43 104.070427 2.443552 8.231699 49.067368 -67.749771 39.286453 104.424065
44 104.070427 2.443552 8.231699 49.067368 -67.749771 39.286453 104.424065
[R_mid_hand03]
43 106.028137 -11.221827 -5.996406 -177.101105 15.551026 -76.585571 106.788818
44 106.028137 -11.221827 -5.996406 -177.101105 15.551026 -76.585571 106.788818
[spine02]
43 129.756927 0.001550 0.000119 0.480319 -4.031311 -14.653947 129.756927
44 129.756927 0.001550 0.000119 0.439555 -4.036186 -14.054004 129.756927
[spine03]
43 78.614037 0.081908 -4.899003 1.970217 3.797409 17.555765 78.766571
44 78.614044 0.081848 -4.899004 1.943974 3.810873 17.184679 78.766579
[pelvis]
43 169.435242 0.051022 0.000000 -0.068802 -0.178333 16.283321 169.435257
44 169.435242 0.051022 0.000000 -0.062727 -0.179450 15.529267 169.435257
[null_rope03_connect]
43 -1.257226 -2.466202 137.391083 0.000000 -89.487183 59.617035 137.418976
44 -1.257226 -2.466202 137.391083 0.000000 -89.453926 60.396584 137.418976
[null_rope04_connect]
43 -1.259640 -2.480268 -137.844437 0.000000 -89.487183 59.617035 137.872513
44 -1.259640 -2.480268 -137.844437 0.000000 -89.453926 60.396584 137.872513
[Rope3_Seg01]
43 -0.000027 0.000036 0.000284 17.971491 23.034554 -78.430946 0.000288
44 -0.000028 0.000037 0.000295 17.978096 23.061340 -78.417122 0.000298
[Rope3_Seg02]
43 139.999924 -0.000119 0.000060 -0.073880 0.642047 3.295577 139.999924
44 139.999924 -0.000119 0.000060 -0.076707 0.629757 3.295568 139.999924
[Rope3_Seg03]
43 139.999924 -0.000119 0.000119 -0.232558 0.856983 4.417645 139.999924
44 139.999924 -0.000119 0.000119 -0.235468 0.844731 4.422593 139.999924
[Rope3_Seg04]
43 139.999924 0.000119 0.000000 -1.024136 1.757273 9.298030 139.999924
44 139.999924 0.000119 0.000000 -1.027039 1.752522 9.295545 139.999924
[Rope3_Seg05]
43 139.999924 -0.000238 0.000060 1.152318 -1.212760 -7.105459 139.999924
44 139.999924 -0.000238 0.000060 1.152550 -1.215153 -7.112920 139.999924
[Rope3_Seg06]
43 139.999893 -0.000119 -0.000060 1.817271 -3.668738 -19.790936 139.999893
44 139.999893 -0.000119 -0.000060 1.817271 -3.668738 -19.790936 139.999893
[Rope3_Seg07]
43 139.999771 0.000060 -0.000119 0.075582 -2.260309 -10.767201 139.999771
44 139.999771 0.000060 -0.000119 0.075747 -2.261538 -10.769691 139.999771
[Rope3_Seg08]
43 139.999985 -0.000060 0.000000 -0.124503 -1.262937 -6.073487 139.999985
44 139.999985 -0.000060 0.000000 -0.124503 -1.262937 -6.073487 139.999985
[Rope3_Seg09]
43 90.185997 -0.000179 -0.000060 89.793228 -1.359877 -0.847183 90.185997
44 90.185997 -0.000179 -0.000060 89.793228 -1.359877 -0.847183 90.185997
[R_rear_hand01]
43 103.366196 -6.073594 -10.757982 -177.714203 24.565960 -73.910950 104.101845
44 103.366196 -6.073594 -10.757982 -177.714203 24.565960 -73.910950 104.101845
[R_rear_hand02]
43 100.509819 12.039542 -7.992327 -12.874829 36.868488 72.167213 101.543350
44 100.509819 12.039542 -7.992327 -12.874829 36.868488 72.167213 101.543350
[R_rear_hand03]
43 101.539970 5.215704 5.435467 71.484581 -71.816628 21.513813 101.819031
44 101.539970 5.215704 5.435467 71.484581 -71.816628 21.513813 101.819031
[Rope4_Seg01]
43 0.000000 0.000000 0.000000 -101.661293 19.917723 -109.115799 0.000000
44 0.000000 0.000000 0.000000 -101.672356 19.977652 -109.115555 0.000000
[Rope4_Seg02]
43 139.999985 0.000060 0.000119 -0.334883 -5.777387 -0.003724 139.999985
44 139.999985 0.000060 0.000119 -0.334507 -5.777409 -0.011174 139.999985
[Rope4_Seg03]
43 139.999924 0.000000 -0.000238 0.050310 -8.301928 -1.216890 139.999924
44 139.999924 0.000000 -0.000238 0.051006 -8.299445 -1.226857 139.999924
[Rope4_Seg04]
43 139.999985 0.000000 0.000119 1.123079 -15.596348 -5.265724 139.999985
44 139.999985 0.000000 0.000119 1.121930 -15.591302 -5.295470 139.999985
[Rope4_Seg05]
43 139.999802 -0.000060 -0.000119 2.704980 12.083777 13.600363 139.999802
44 139.999802 -0.000060 -0.000119 2.704980 12.083777 13.600363 139.999802
[Rope4_Seg06]
43 139.999924 0.000000 0.000060 0.633673 11.067181 9.038646 139.999924
44 139.999924 0.000000 0.000060 0.634679 11.067099 9.036252 139.999924
[Rope4_Seg07]
43 139.999802 0.000000 0.000000 -0.176401 3.133596 3.079524 139.999802
44 139.999802 0.000000 0.000000 -0.176401 3.133596 3.079524 139.999802
[Rope4_Seg08]
43 139.999924 0.000000 0.000119 -1.703357 1.748957 1.731847 139.999924
44 139.999924 0.000000 0.000119 -1.703357 1.748957 1.731847 139.999924
[Rope4_Seg09]
43 90.185791 0.000060 0.000060 -135.617828 2.228885 0.850567 90.185791
44 90.185791 0.000060 0.000060 -135.617828 2.228885 0.850567 90.185791
[L_rear_hand01]
43 101.696655 -8.392275 -7.654577 -12.874829 -36.868488 107.832764 102.329041
44 101.696655 -8.392275 -7.654577 -12.874829 -36.868488 107.832764 102.329041
[L_rear_hand02]
43 102.726799 -1.568258 5.773216 71.484581 71.816628 158.486160 102.900848
44 102.726799 -1.568258 5.773216 71.484581 71.816628 158.486160 102.900848
[L_rear_hand03]
43 104.552910 9.721220 -10.420293 -177.714203 -24.565960 -106.089035 105.519653
44 104.552910 9.721220 -10.420293 -177.714203 -24.565960 -106.089035 105.519653
